<svg width="53" height="53" viewBox="0 0 53 53" fill="none" xmlns="http://www.w3.org/2000/svg">
<circle cx="26.5" cy="26.5" r="25.5" fill="#131313" stroke="url(#paint0_linear_14_5)" stroke-width="2"/>
<path d="M32.8182 21.3125C32.6193 20.6212 32.34 20.0104 31.9801 19.4801C31.6203 18.9403 31.1799 18.4858 30.6591 18.1165C30.1477 17.7377 29.5606 17.4489 28.8977 17.25C28.2443 17.0511 27.5199 16.9517 26.7244 16.9517C25.2377 16.9517 23.9309 17.321 22.804 18.0597C21.6866 18.7983 20.8153 19.8731 20.1903 21.2841C19.5653 22.6856 19.2528 24.3996 19.2528 26.4261C19.2528 28.4527 19.5606 30.1761 20.1761 31.5966C20.7917 33.017 21.6629 34.1013 22.7898 34.8494C23.9167 35.5881 25.2472 35.9574 26.7812 35.9574C28.1733 35.9574 29.3617 35.7112 30.3466 35.2188C31.3409 34.7169 32.0985 34.0114 32.6193 33.1023C33.1496 32.1932 33.4148 31.1184 33.4148 29.8778L34.6648 30.0625H27.1648V25.4318H39.3381V29.0966C39.3381 31.6534 38.7983 33.8504 37.7188 35.6875C36.6392 37.5152 35.1525 38.9261 33.2585 39.9205C31.3646 40.9053 29.196 41.3977 26.7528 41.3977C24.0256 41.3977 21.6297 40.7964 19.5653 39.5938C17.5009 38.3816 15.8911 36.6629 14.7358 34.4375C13.59 32.2027 13.017 29.5511 13.017 26.483C13.017 24.125 13.358 22.0227 14.0398 20.1761C14.7311 18.3201 15.697 16.7481 16.9375 15.4602C18.178 14.1723 19.6222 13.1922 21.2699 12.5199C22.9176 11.8475 24.7027 11.5114 26.625 11.5114C28.2727 11.5114 29.8068 11.7528 31.2273 12.2358C32.6477 12.7093 33.9072 13.3816 35.0057 14.2528C36.1136 15.1241 37.018 16.161 37.7188 17.3636C38.4195 18.5568 38.8693 19.8731 39.0682 21.3125H32.8182Z" fill="white"/>
<defs>
<linearGradient id="paint0_linear_14_5" x1="26.5" y1="2" x2="26.5" y2="51" gradientUnits="userSpaceOnUse">
<stop stop-color="#F746B3"/>
<stop offset="1" stop-color="#FCB64C"/>
</linearGradient>
</defs>
</svg>
