<svg width="182" height="32" viewBox="0 0 182 32" fill="none" xmlns="http://www.w3.org/2000/svg">
<path d="M9.144 31.392C10.548 31.392 11.808 31.176 12.96 30.708C14.076 30.276 15.048 29.628 15.876 28.8C16.704 27.972 17.316 26.964 17.784 25.776C18.252 24.588 18.468 23.256 18.468 21.78V5.4H13.968V7.308H13.68C13.14 6.552 12.42 5.94 11.52 5.472C10.62 5.04 9.54 4.824 8.316 4.824C7.272 4.824 6.228 5.04 5.256 5.472C4.248 5.904 3.348 6.516 2.592 7.308C1.836 8.136 1.188 9.108 0.72 10.224C0.252 11.376 0 12.636 0 14.04C0 15.444 0.252 16.704 0.72 17.82C1.188 18.936 1.836 19.908 2.592 20.7C3.348 21.528 4.248 22.14 5.256 22.572C6.228 23.004 7.272 23.22 8.316 23.22C9.54 23.22 10.62 23.004 11.52 22.536C12.42 22.104 13.14 21.492 13.68 20.736H13.968V21.96C13.968 23.616 13.536 24.912 12.672 25.812C11.808 26.748 10.62 27.216 9.144 27.216C8.208 27.216 7.344 26.964 6.588 26.424C5.832 25.92 5.256 25.2 4.932 24.264L0.432 26.064C0.648 26.676 1.008 27.324 1.476 27.936C1.944 28.548 2.556 29.124 3.276 29.628C3.996 30.168 4.86 30.564 5.832 30.888C6.804 31.212 7.884 31.392 9.144 31.392ZM9.324 18.972C8.748 18.972 8.172 18.864 7.632 18.648C7.092 18.432 6.588 18.108 6.156 17.676C5.724 17.28 5.364 16.74 5.112 16.128C4.86 15.516 4.716 14.832 4.716 14.04C4.716 13.248 4.86 12.528 5.112 11.916C5.364 11.304 5.724 10.8 6.156 10.368C6.588 9.936 7.092 9.612 7.632 9.396C8.172 9.18 8.748 9.072 9.324 9.072C9.9 9.072 10.476 9.18 11.052 9.396C11.592 9.612 12.096 9.936 12.528 10.332C12.96 10.764 13.32 11.304 13.572 11.916C13.824 12.528 13.968 13.248 13.968 14.04C13.968 14.832 13.824 15.516 13.572 16.128C13.32 16.74 12.96 17.28 12.528 17.676C12.096 18.108 11.592 18.432 11.052 18.648C10.476 18.864 9.9 18.972 9.324 18.972Z" fill="url(#paint0_linear_22_4)"/>
<path d="M35.0885 23.04H39.5165V4.824H34.8005V7.524C34.3685 6.768 33.6845 6.156 32.7845 5.616C31.8845 5.076 30.7325 4.824 29.4005 4.824C28.2845 4.824 27.2045 5.04 26.1965 5.508C25.1525 5.976 24.2525 6.624 23.4965 7.452C22.7045 8.28 22.0925 9.288 21.6245 10.44C21.1565 11.592 20.9405 12.852 20.9405 14.22C20.9405 15.588 21.1565 16.848 21.6245 18C22.0925 19.152 22.7045 20.124 23.4965 20.952C24.2525 21.78 25.1525 22.428 26.1965 22.896C27.2045 23.364 28.2845 23.616 29.4005 23.616C30.7325 23.616 31.8845 23.364 32.7845 22.824C33.6845 22.284 34.3685 21.672 34.8005 20.916H35.0885V23.04ZM30.3725 19.26C29.7605 19.26 29.1485 19.152 28.6085 18.9C28.0325 18.648 27.5285 18.324 27.0965 17.892C26.6645 17.46 26.3045 16.92 26.0525 16.308C25.8005 15.696 25.6565 14.976 25.6565 14.22C25.6565 13.464 25.8005 12.744 26.0525 12.132C26.3045 11.52 26.6645 10.98 27.0965 10.548C27.5285 10.116 28.0325 9.792 28.6085 9.54C29.1485 9.288 29.7605 9.18 30.3725 9.18C30.9845 9.18 31.5965 9.288 32.1725 9.504C32.7125 9.756 33.2165 10.08 33.6485 10.512C34.0805 10.944 34.4405 11.484 34.6925 12.096C34.9445 12.708 35.0885 13.428 35.0885 14.22C35.0885 15.012 34.9445 15.732 34.6925 16.344C34.4405 16.956 34.0805 17.496 33.6485 17.928C33.2165 18.36 32.7125 18.684 32.1725 18.9C31.5965 19.152 30.9845 19.26 30.3725 19.26Z" fill="url(#paint1_linear_22_4)"/>
<path d="M42.9944 23.04H47.7104V14.472C47.7104 13.716 47.7824 13.032 47.9624 12.384C48.1424 11.736 48.3584 11.16 48.6824 10.692C49.0064 10.224 49.3664 9.864 49.8344 9.576C50.3024 9.324 50.8064 9.18 51.4184 9.18C53.4704 9.18 54.5144 10.368 54.5144 12.78V23.04H59.2304V14.472C59.2304 13.716 59.3384 13.032 59.5184 12.384C59.6984 11.736 59.9504 11.16 60.2744 10.692C60.5984 10.224 60.9944 9.864 61.4624 9.576C61.9304 9.324 62.5064 9.18 63.1184 9.18C65.0984 9.18 66.0704 10.368 66.0704 12.78V23.04H70.7864V11.916C70.7864 10.872 70.6424 9.936 70.3904 9.036C70.1384 8.172 69.7424 7.416 69.2384 6.804C68.6984 6.192 68.0504 5.688 67.2584 5.328C66.4664 5.004 65.5304 4.824 64.4504 4.824C63.0104 4.824 61.7864 5.148 60.7784 5.76C59.7704 6.408 58.9784 7.164 58.4384 8.064C58.0424 7.164 57.3944 6.372 56.4944 5.76C55.5944 5.148 54.4424 4.824 53.1104 4.824C51.9584 4.824 50.9144 5.076 49.9784 5.616C49.0064 6.156 48.2504 6.84 47.7104 7.704H47.4224V5.4H42.9944V23.04Z" fill="url(#paint2_linear_22_4)"/>
<path d="M86.9102 16.848C86.5142 17.604 85.9382 18.216 85.2542 18.684C84.5342 19.188 83.6342 19.44 82.5542 19.44C82.0142 19.44 81.4742 19.368 80.9342 19.188C80.3942 19.044 79.9262 18.792 79.4942 18.432C79.0262 18.108 78.6662 17.676 78.3782 17.136C78.0542 16.632 77.8742 16.02 77.7662 15.3H91.0502C91.0502 15.156 91.0502 15.012 91.0862 14.904C91.0862 14.796 91.0862 14.652 91.1222 14.508C91.1222 14.4 91.1222 14.256 91.1222 14.076C91.1222 12.744 90.9422 11.52 90.5462 10.404C90.1502 9.288 89.6102 8.28 88.8542 7.452C88.0982 6.624 87.1982 5.976 86.0822 5.508C84.9662 5.04 83.7062 4.824 82.3022 4.824C80.9702 4.824 79.7462 5.076 78.6302 5.58C77.5142 6.084 76.5422 6.768 75.7142 7.596C74.8862 8.46 74.2742 9.468 73.8062 10.584C73.3382 11.736 73.1222 12.96 73.1222 14.22C73.1222 15.588 73.3742 16.848 73.8422 17.964C74.3102 19.116 74.9582 20.124 75.7862 20.952C76.6142 21.78 77.6222 22.428 78.7742 22.896C79.8902 23.364 81.1502 23.616 82.4822 23.616C84.4622 23.616 86.1542 23.184 87.5582 22.284C88.9262 21.384 90.0062 20.232 90.8342 18.792L86.9102 16.848ZM78.0182 11.952C78.3422 10.908 78.8822 10.116 79.6382 9.54C80.3942 8.964 81.2942 8.676 82.3022 8.676C83.0222 8.676 83.6342 8.784 84.1742 9C84.6782 9.216 85.1102 9.504 85.4702 9.828C85.7942 10.152 86.0822 10.512 86.2622 10.908C86.4422 11.304 86.5142 11.628 86.5502 11.952H78.0182Z" fill="url(#paint3_linear_22_4)"/>
<path d="M93.4501 30.816H98.1661V20.916C98.5981 21.672 99.2821 22.284 100.182 22.824C101.082 23.364 102.234 23.616 103.566 23.616C104.682 23.616 105.762 23.364 106.806 22.896C107.814 22.428 108.714 21.78 109.506 20.952C110.262 20.124 110.874 19.152 111.342 18C111.81 16.848 112.026 15.588 112.026 14.22C112.026 12.852 111.81 11.592 111.342 10.44C110.874 9.288 110.262 8.28 109.506 7.452C108.714 6.624 107.814 5.976 106.806 5.508C105.762 5.04 104.682 4.824 103.566 4.824C102.234 4.824 101.082 5.076 100.182 5.616C99.2821 6.156 98.5981 6.768 98.1661 7.524H97.8781V5.4H93.4501V30.816ZM102.594 19.26C101.982 19.26 101.37 19.152 100.83 18.9C100.254 18.684 99.7501 18.36 99.3181 17.928C98.8861 17.496 98.5261 16.956 98.2741 16.344C98.0221 15.732 97.8781 15.012 97.8781 14.22C97.8781 13.428 98.0221 12.708 98.2741 12.096C98.5261 11.484 98.8861 10.944 99.3181 10.512C99.7501 10.08 100.254 9.756 100.83 9.504C101.37 9.288 101.982 9.18 102.594 9.18C103.206 9.18 103.818 9.288 104.394 9.54C104.934 9.792 105.438 10.116 105.87 10.548C106.302 10.98 106.662 11.52 106.914 12.132C107.166 12.744 107.31 13.464 107.31 14.22C107.31 14.976 107.166 15.696 106.914 16.308C106.662 16.92 106.302 17.46 105.87 17.892C105.438 18.324 104.934 18.648 104.394 18.9C103.818 19.152 103.206 19.26 102.594 19.26Z" fill="url(#paint4_linear_22_4)"/>
<path d="M127.639 23.04H132.067V4.824H127.351V7.524C126.919 6.768 126.235 6.156 125.335 5.616C124.435 5.076 123.283 4.824 121.951 4.824C120.835 4.824 119.755 5.04 118.747 5.508C117.703 5.976 116.803 6.624 116.047 7.452C115.255 8.28 114.643 9.288 114.175 10.44C113.707 11.592 113.491 12.852 113.491 14.22C113.491 15.588 113.707 16.848 114.175 18C114.643 19.152 115.255 20.124 116.047 20.952C116.803 21.78 117.703 22.428 118.747 22.896C119.755 23.364 120.835 23.616 121.951 23.616C123.283 23.616 124.435 23.364 125.335 22.824C126.235 22.284 126.919 21.672 127.351 20.916H127.639V23.04ZM122.923 19.26C122.311 19.26 121.699 19.152 121.159 18.9C120.583 18.648 120.079 18.324 119.647 17.892C119.215 17.46 118.855 16.92 118.603 16.308C118.351 15.696 118.207 14.976 118.207 14.22C118.207 13.464 118.351 12.744 118.603 12.132C118.855 11.52 119.215 10.98 119.647 10.548C120.079 10.116 120.583 9.792 121.159 9.54C121.699 9.288 122.311 9.18 122.923 9.18C123.535 9.18 124.147 9.288 124.723 9.504C125.263 9.756 125.767 10.08 126.199 10.512C126.631 10.944 126.991 11.484 127.243 12.096C127.495 12.708 127.639 13.428 127.639 14.22C127.639 15.012 127.495 15.732 127.243 16.344C126.991 16.956 126.631 17.496 126.199 17.928C125.767 18.36 125.263 18.684 124.723 18.9C124.147 19.152 123.535 19.26 122.923 19.26Z" fill="url(#paint5_linear_22_4)"/>
<path d="M135.545 23.04H140.261V14.4C140.261 13.68 140.369 12.996 140.585 12.384C140.765 11.772 141.053 11.268 141.449 10.8C141.809 10.332 142.241 9.972 142.781 9.72C143.321 9.468 143.897 9.36 144.545 9.36C145.049 9.36 145.481 9.396 145.841 9.468C146.165 9.576 147.749 9.684 148.037 9.828V5.544C147.713 5.364 147.353 5.184 146.921 5.076C146.453 4.968 145.913 4.896 145.301 4.896C144.797 4.896 144.293 4.968 143.789 5.112C143.249 5.256 142.781 5.472 142.349 5.724C141.881 5.976 141.485 6.3 141.125 6.66C140.765 7.02 140.477 7.416 140.261 7.848H139.973V5.4H135.545V23.04Z" fill="url(#paint6_linear_22_4)"/>
<path d="M151.609 17.172C151.609 19.152 152.185 20.7 153.301 21.78C153.769 22.248 154.382 22.644 155.102 22.896C155.786 23.184 156.578 23.328 157.478 23.328C158.234 23.328 158.954 23.256 159.602 23.112C160.214 23.004 160.826 22.788 161.366 22.536V18.396C161.366 18.396 159.602 18.648 159.35 18.72C159.098 18.828 158.774 18.864 158.378 18.864C157.766 18.864 157.262 18.684 156.938 18.288C156.686 18.036 156.541 17.748 156.469 17.388C156.361 17.064 156.326 16.668 156.326 16.272V9.432H160.646V5.4H156.326V0H151.609V5.4H148.514V9.432H151.609V17.172Z" fill="url(#paint7_linear_22_4)"/>
<path d="M165.195 30.816H170.271L181.323 5.4H176.067L171.783 16.092H171.531L167.067 5.4H161.703L169.119 22.176L165.195 30.816Z" fill="url(#paint8_linear_22_4)"/>
<defs>
<linearGradient id="paint0_linear_22_4" x1="81.5" y1="-29" x2="117" y2="47" gradientUnits="userSpaceOnUse">
<stop stop-color="#FCB64C"/>
<stop offset="1" stop-color="#F746B3"/>
</linearGradient>
<linearGradient id="paint1_linear_22_4" x1="81.5" y1="-29" x2="117" y2="47" gradientUnits="userSpaceOnUse">
<stop stop-color="#FCB64C"/>
<stop offset="1" stop-color="#F746B3"/>
</linearGradient>
<linearGradient id="paint2_linear_22_4" x1="81.5" y1="-29" x2="117" y2="47" gradientUnits="userSpaceOnUse">
<stop stop-color="#FCB64C"/>
<stop offset="1" stop-color="#F746B3"/>
</linearGradient>
<linearGradient id="paint3_linear_22_4" x1="81.5" y1="-29" x2="117" y2="47" gradientUnits="userSpaceOnUse">
<stop stop-color="#FCB64C"/>
<stop offset="1" stop-color="#F746B3"/>
</linearGradient>
<linearGradient id="paint4_linear_22_4" x1="81.5" y1="-29" x2="117" y2="47" gradientUnits="userSpaceOnUse">
<stop stop-color="#FCB64C"/>
<stop offset="1" stop-color="#F746B3"/>
</linearGradient>
<linearGradient id="paint5_linear_22_4" x1="81.5" y1="-29" x2="117" y2="47" gradientUnits="userSpaceOnUse">
<stop stop-color="#FCB64C"/>
<stop offset="1" stop-color="#F746B3"/>
</linearGradient>
<linearGradient id="paint6_linear_22_4" x1="81.5" y1="-29" x2="117" y2="47" gradientUnits="userSpaceOnUse">
<stop stop-color="#FCB64C"/>
<stop offset="1" stop-color="#F746B3"/>
</linearGradient>
<linearGradient id="paint7_linear_22_4" x1="81.5" y1="-29" x2="117" y2="47" gradientUnits="userSpaceOnUse">
<stop stop-color="#FCB64C"/>
<stop offset="1" stop-color="#F746B3"/>
</linearGradient>
<linearGradient id="paint8_linear_22_4" x1="81.5" y1="-29" x2="117" y2="47" gradientUnits="userSpaceOnUse">
<stop stop-color="#FCB64C"/>
<stop offset="1" stop-color="#F746B3"/>
</linearGradient>
</defs>
</svg>
