<svg width="182" height="33" viewBox="0 0 182 33" fill="none" xmlns="http://www.w3.org/2000/svg">
<path d="M9.152 32.352C10.556 32.352 11.816 32.136 12.968 31.668C14.084 31.236 15.056 30.588 15.884 29.76C16.712 28.932 17.324 27.924 17.792 26.736C18.26 25.548 18.476 24.216 18.476 22.74V6.35999H13.976V8.26799H13.688C13.148 7.51199 12.428 6.89999 11.528 6.43199C10.628 5.99999 9.548 5.78399 8.324 5.78399C7.28 5.78399 6.236 5.99999 5.264 6.43199C4.256 6.86399 3.356 7.47599 2.6 8.26799C1.844 9.09599 1.196 10.068 0.727996 11.184C0.259996 12.336 0.00799561 13.596 0.00799561 15C0.00799561 16.404 0.259996 17.664 0.727996 18.78C1.196 19.896 1.844 20.868 2.6 21.66C3.356 22.488 4.256 23.1 5.264 23.532C6.236 23.964 7.28 24.18 8.324 24.18C9.548 24.18 10.628 23.964 11.528 23.496C12.428 23.064 13.148 22.452 13.688 21.696H13.976V22.92C13.976 24.576 13.544 25.872 12.68 26.772C11.816 27.708 10.628 28.176 9.152 28.176C8.216 28.176 7.352 27.924 6.596 27.384C5.84 26.88 5.264 26.16 4.94 25.224L0.439996 27.024C0.655996 27.636 1.016 28.284 1.484 28.896C1.952 29.508 2.564 30.084 3.284 30.588C4.004 31.128 4.868 31.524 5.84 31.848C6.812 32.172 7.892 32.352 9.152 32.352ZM9.332 19.932C8.756 19.932 8.18 19.824 7.64 19.608C7.1 19.392 6.596 19.068 6.164 18.636C5.732 18.24 5.372 17.7 5.12 17.088C4.868 16.476 4.724 15.792 4.724 15C4.724 14.208 4.868 13.488 5.12 12.876C5.372 12.264 5.732 11.76 6.164 11.328C6.596 10.896 7.1 10.572 7.64 10.356C8.18 10.14 8.756 10.032 9.332 10.032C9.908 10.032 10.484 10.14 11.06 10.356C11.6 10.572 12.104 10.896 12.536 11.292C12.968 11.724 13.328 12.264 13.58 12.876C13.832 13.488 13.976 14.208 13.976 15C13.976 15.792 13.832 16.476 13.58 17.088C13.328 17.7 12.968 18.24 12.536 18.636C12.104 19.068 11.6 19.392 11.06 19.608C10.484 19.824 9.908 19.932 9.332 19.932Z" fill="white"/>
<path d="M35.0965 24H39.5245V5.78399H34.8085V8.48399C34.3765 7.72799 33.6925 7.11599 32.7925 6.57599C31.8925 6.03599 30.7405 5.78399 29.4085 5.78399C28.2925 5.78399 27.2125 5.99999 26.2045 6.46799C25.1605 6.93599 24.2605 7.58399 23.5045 8.41199C22.7125 9.23999 22.1005 10.248 21.6325 11.4C21.1645 12.552 20.9485 13.812 20.9485 15.18C20.9485 16.548 21.1645 17.808 21.6325 18.96C22.1005 20.112 22.7125 21.084 23.5045 21.912C24.2605 22.74 25.1605 23.388 26.2045 23.856C27.2125 24.324 28.2925 24.576 29.4085 24.576C30.7405 24.576 31.8925 24.324 32.7925 23.784C33.6925 23.244 34.3765 22.632 34.8085 21.876H35.0965V24ZM30.3805 20.22C29.7685 20.22 29.1565 20.112 28.6165 19.86C28.0405 19.608 27.5365 19.284 27.1045 18.852C26.6725 18.42 26.3125 17.88 26.0605 17.268C25.8085 16.656 25.6645 15.936 25.6645 15.18C25.6645 14.424 25.8085 13.704 26.0605 13.092C26.3125 12.48 26.6725 11.94 27.1045 11.508C27.5365 11.076 28.0405 10.752 28.6165 10.5C29.1565 10.248 29.7685 10.14 30.3805 10.14C30.9925 10.14 31.6045 10.248 32.1805 10.464C32.7205 10.716 33.2245 11.04 33.6565 11.472C34.0885 11.904 34.4485 12.444 34.7005 13.056C34.9525 13.668 35.0965 14.388 35.0965 15.18C35.0965 15.972 34.9525 16.692 34.7005 17.304C34.4485 17.916 34.0885 18.456 33.6565 18.888C33.2245 19.32 32.7205 19.644 32.1805 19.86C31.6045 20.112 30.9925 20.22 30.3805 20.22Z" fill="white"/>
<path d="M43.0024 24H47.7184V15.432C47.7184 14.676 47.7904 13.992 47.9704 13.344C48.1504 12.696 48.3664 12.12 48.6904 11.652C49.0144 11.184 49.3744 10.824 49.8424 10.536C50.3104 10.284 50.8144 10.14 51.4264 10.14C53.4784 10.14 54.5224 11.328 54.5224 13.74V24H59.2384V15.432C59.2384 14.676 59.3464 13.992 59.5264 13.344C59.7064 12.696 59.9584 12.12 60.2824 11.652C60.6064 11.184 61.0024 10.824 61.4704 10.536C61.9384 10.284 62.5144 10.14 63.1264 10.14C65.1064 10.14 66.0784 11.328 66.0784 13.74V24H70.7944V12.876C70.7944 11.832 70.6504 10.896 70.3984 9.99599C70.1464 9.13199 69.7504 8.37599 69.2464 7.76399C68.7064 7.15199 68.0584 6.64799 67.2664 6.28799C66.4744 5.96399 65.5384 5.78399 64.4584 5.78399C63.0184 5.78399 61.7944 6.10799 60.7864 6.71999C59.7784 7.36799 58.9864 8.12399 58.4464 9.02399C58.0504 8.12399 57.4024 7.33199 56.5024 6.71999C55.6024 6.10799 54.4504 5.78399 53.1184 5.78399C51.9664 5.78399 50.9224 6.03599 49.9864 6.57599C49.0144 7.11599 48.2584 7.79999 47.7184 8.66399H47.4304V6.35999H43.0024V24Z" fill="white"/>
<path d="M86.9182 17.808C86.5222 18.564 85.9462 19.176 85.2622 19.644C84.5422 20.148 83.6422 20.4 82.5622 20.4C82.0222 20.4 81.4822 20.328 80.9422 20.148C80.4022 20.004 79.9342 19.752 79.5022 19.392C79.0342 19.068 78.6742 18.636 78.3862 18.096C78.0622 17.592 77.8822 16.98 77.7742 16.26H91.0582C91.0582 16.116 91.0582 15.972 91.0942 15.864C91.0942 15.756 91.0942 15.612 91.1302 15.468C91.1302 15.36 91.1302 15.216 91.1302 15.036C91.1302 13.704 90.9502 12.48 90.5542 11.364C90.1582 10.248 89.6182 9.23999 88.8622 8.41199C88.1062 7.58399 87.2062 6.93599 86.0902 6.46799C84.9742 5.99999 83.7142 5.78399 82.3102 5.78399C80.9782 5.78399 79.7542 6.03599 78.6382 6.53999C77.5222 7.04399 76.5502 7.72799 75.7222 8.55599C74.8942 9.41999 74.2822 10.428 73.8142 11.544C73.3462 12.696 73.1302 13.92 73.1302 15.18C73.1302 16.548 73.3822 17.808 73.8502 18.924C74.3182 20.076 74.9662 21.084 75.7942 21.912C76.6222 22.74 77.6302 23.388 78.7822 23.856C79.8982 24.324 81.1582 24.576 82.4902 24.576C84.4702 24.576 86.1622 24.144 87.5662 23.244C88.9342 22.344 90.0142 21.192 90.8422 19.752L86.9182 17.808ZM78.0262 12.912C78.3502 11.868 78.8902 11.076 79.6462 10.5C80.4022 9.92399 81.3022 9.63599 82.3102 9.63599C83.0302 9.63599 83.6422 9.74399 84.1822 9.95999C84.6862 10.176 85.1182 10.464 85.4782 10.788C85.8022 11.112 86.0902 11.472 86.2702 11.868C86.4502 12.264 86.5222 12.588 86.5582 12.912H78.0262Z" fill="white"/>
<path d="M93.4581 31.776H98.1741V21.876C98.6061 22.632 99.2901 23.244 100.19 23.784C101.09 24.324 102.242 24.576 103.574 24.576C104.69 24.576 105.77 24.324 106.814 23.856C107.822 23.388 108.722 22.74 109.514 21.912C110.27 21.084 110.882 20.112 111.35 18.96C111.818 17.808 112.034 16.548 112.034 15.18C112.034 13.812 111.818 12.552 111.35 11.4C110.882 10.248 110.27 9.23999 109.514 8.41199C108.722 7.58399 107.822 6.93599 106.814 6.46799C105.77 5.99999 104.69 5.78399 103.574 5.78399C102.242 5.78399 101.09 6.03599 100.19 6.57599C99.2901 7.11599 98.6061 7.72799 98.1741 8.48399H97.8861V6.35999H93.4581V31.776ZM102.602 20.22C101.99 20.22 101.378 20.112 100.838 19.86C100.262 19.644 99.7581 19.32 99.3261 18.888C98.8941 18.456 98.5341 17.916 98.2821 17.304C98.0301 16.692 97.8861 15.972 97.8861 15.18C97.8861 14.388 98.0301 13.668 98.2821 13.056C98.5341 12.444 98.8941 11.904 99.3261 11.472C99.7581 11.04 100.262 10.716 100.838 10.464C101.378 10.248 101.99 10.14 102.602 10.14C103.214 10.14 103.826 10.248 104.402 10.5C104.942 10.752 105.446 11.076 105.878 11.508C106.31 11.94 106.67 12.48 106.922 13.092C107.174 13.704 107.318 14.424 107.318 15.18C107.318 15.936 107.174 16.656 106.922 17.268C106.67 17.88 106.31 18.42 105.878 18.852C105.446 19.284 104.942 19.608 104.402 19.86C103.826 20.112 103.214 20.22 102.602 20.22Z" fill="white"/>
<path d="M127.647 24H132.075V5.78399H127.359V8.48399C126.927 7.72799 126.243 7.11599 125.343 6.57599C124.443 6.03599 123.291 5.78399 121.959 5.78399C120.843 5.78399 119.763 5.99999 118.755 6.46799C117.711 6.93599 116.811 7.58399 116.055 8.41199C115.263 9.23999 114.651 10.248 114.183 11.4C113.715 12.552 113.499 13.812 113.499 15.18C113.499 16.548 113.715 17.808 114.183 18.96C114.651 20.112 115.263 21.084 116.055 21.912C116.811 22.74 117.711 23.388 118.755 23.856C119.763 24.324 120.843 24.576 121.959 24.576C123.291 24.576 124.443 24.324 125.343 23.784C126.243 23.244 126.927 22.632 127.359 21.876H127.647V24ZM122.931 20.22C122.319 20.22 121.707 20.112 121.167 19.86C120.591 19.608 120.087 19.284 119.655 18.852C119.223 18.42 118.863 17.88 118.611 17.268C118.359 16.656 118.215 15.936 118.215 15.18C118.215 14.424 118.359 13.704 118.611 13.092C118.863 12.48 119.223 11.94 119.655 11.508C120.087 11.076 120.591 10.752 121.167 10.5C121.707 10.248 122.319 10.14 122.931 10.14C123.543 10.14 124.155 10.248 124.731 10.464C125.271 10.716 125.775 11.04 126.207 11.472C126.639 11.904 126.999 12.444 127.251 13.056C127.503 13.668 127.647 14.388 127.647 15.18C127.647 15.972 127.503 16.692 127.251 17.304C126.999 17.916 126.639 18.456 126.207 18.888C125.775 19.32 125.271 19.644 124.731 19.86C124.155 20.112 123.543 20.22 122.931 20.22Z" fill="white"/>
<path d="M135.553 24H140.269V15.36C140.269 14.64 140.377 13.956 140.593 13.344C140.773 12.732 141.061 12.228 141.457 11.76C141.817 11.292 142.249 10.932 142.789 10.68C143.329 10.428 143.905 10.32 144.553 10.32C145.057 10.32 145.489 10.356 145.849 10.428C146.173 10.536 147.757 10.644 148.045 10.788V6.50399C147.721 6.32399 147.361 6.14399 146.929 6.03599C146.461 5.92799 145.921 5.85599 145.309 5.85599C144.805 5.85599 144.301 5.92799 143.797 6.07199C143.257 6.21599 142.789 6.43199 142.357 6.68399C141.889 6.93599 141.493 7.25999 141.133 7.61999C140.773 7.97999 140.485 8.37599 140.269 8.80799H139.981V6.35999H135.553V24Z" fill="white"/>
<path d="M151.617 18.132C151.617 20.112 152.193 21.66 153.309 22.74C153.777 23.208 154.389 23.604 155.109 23.856C155.793 24.144 156.586 24.288 157.486 24.288C158.242 24.288 158.961 24.216 159.609 24.072C160.221 23.964 160.834 23.748 161.374 23.496V19.356C161.374 19.356 159.609 19.608 159.357 19.68C159.105 19.788 158.781 19.824 158.385 19.824C157.773 19.824 157.269 19.644 156.945 19.248C156.693 18.996 156.549 18.708 156.477 18.348C156.369 18.024 156.333 17.628 156.333 17.232V10.392H160.654V6.35999H156.333V0.959991H151.617V6.35999H148.521V10.392H151.617V18.132Z" fill="white"/>
<path d="M165.203 31.776H170.279L181.331 6.35999H176.075L171.791 17.052H171.539L167.075 6.35999H161.711L169.127 23.136L165.203 31.776Z" fill="white"/>
</svg>
