<svg width="193" height="31" viewBox="0 0 193 31" fill="none" xmlns="http://www.w3.org/2000/svg">
<path d="M0.414773 30V8.18182H6.18182V12.0312H6.4375C6.89205 10.7528 7.64962 9.74432 8.71023 9.00568C9.77083 8.26705 11.0398 7.89773 12.517 7.89773C14.0133 7.89773 15.2869 8.27178 16.3381 9.01989C17.3892 9.75852 18.09 10.7623 18.4403 12.0312H18.6676C19.1127 10.7812 19.9176 9.7822 21.0824 9.03409C22.2566 8.27652 23.6439 7.89773 25.2443 7.89773C27.2803 7.89773 28.9328 8.5464 30.2017 9.84375C31.4801 11.1316 32.1193 12.9593 32.1193 15.3267V30H26.0824V16.5199C26.0824 15.3078 25.7604 14.3987 25.1165 13.7926C24.4725 13.1866 23.6676 12.8835 22.7017 12.8835C21.6032 12.8835 20.7462 13.2339 20.1307 13.9347C19.5152 14.6259 19.2074 15.5398 19.2074 16.6761V30H13.3409V16.392C13.3409 15.322 13.0331 14.4697 12.4176 13.8352C11.8116 13.2008 11.0114 12.8835 10.017 12.8835C9.3447 12.8835 8.73864 13.054 8.19886 13.3949C7.66856 13.7263 7.24716 14.1951 6.93466 14.8011C6.62216 15.3977 6.46591 16.0985 6.46591 16.9034V30H0.414773ZM44.8423 30.4261C42.598 30.4261 40.6662 29.9716 39.0469 29.0625C37.437 28.1439 36.1965 26.8466 35.3253 25.1705C34.4541 23.4848 34.0185 21.4915 34.0185 19.1903C34.0185 16.946 34.4541 14.9763 35.3253 13.2812C36.1965 11.5862 37.4228 10.2652 39.0043 9.31818C40.5952 8.37121 42.4607 7.89773 44.6009 7.89773C46.0402 7.89773 47.3802 8.12973 48.6207 8.59375C49.8707 9.0483 50.9598 9.73485 51.8878 10.6534C52.8253 11.572 53.5545 12.7273 54.0753 14.1193C54.5961 15.5019 54.8565 17.1212 54.8565 18.9773V20.6392H36.4332V16.8892H49.1605C49.1605 16.018 48.9711 15.2462 48.5923 14.5739C48.2135 13.9015 47.688 13.3759 47.0156 12.9972C46.3527 12.6089 45.581 12.4148 44.7003 12.4148C43.7817 12.4148 42.9673 12.6278 42.2571 13.054C41.5563 13.4706 41.0071 14.0341 40.6094 14.7443C40.2116 15.4451 40.008 16.2263 39.9986 17.0881V20.6534C39.9986 21.733 40.1974 22.6657 40.5952 23.4517C41.0024 24.2377 41.5753 24.8438 42.3139 25.2699C43.0526 25.696 43.9285 25.9091 44.9418 25.9091C45.6141 25.9091 46.2296 25.8144 46.7884 25.625C47.3471 25.4356 47.8253 25.1515 48.223 24.7727C48.6207 24.3939 48.9238 23.9299 49.1321 23.3807L54.7287 23.75C54.4446 25.0947 53.8622 26.2689 52.9815 27.2727C52.1103 28.267 50.9834 29.0436 49.6009 29.6023C48.2277 30.1515 46.6416 30.4261 44.8423 30.4261ZM70.7969 20.7102V8.18182H76.848V30H71.0384V26.0369H70.8111C70.3187 27.3153 69.4995 28.3428 68.3537 29.1193C67.2173 29.8958 65.83 30.2841 64.1918 30.2841C62.7334 30.2841 61.4503 29.9527 60.3423 29.2898C59.2344 28.6269 58.3679 27.6847 57.7429 26.4631C57.1274 25.2415 56.8149 23.7784 56.8054 22.0739V8.18182H62.8565V20.9943C62.866 22.2822 63.2116 23.3002 63.8935 24.0483C64.5753 24.7964 65.4891 25.1705 66.6349 25.1705C67.3641 25.1705 68.0459 25.0047 68.6804 24.6733C69.3149 24.3324 69.8262 23.8305 70.2145 23.1676C70.6122 22.5047 70.8063 21.6856 70.7969 20.7102ZM99.0916 10.3125C98.8928 9.62121 98.6134 9.01042 98.2536 8.48011C97.8937 7.94034 97.4534 7.4858 96.9325 7.11648C96.4212 6.73769 95.834 6.44886 95.1712 6.25C94.5178 6.05114 93.7933 5.9517 92.9979 5.9517C91.5111 5.9517 90.2043 6.32102 89.0774 7.05966C87.96 7.79829 87.0888 8.87311 86.4638 10.2841C85.8388 11.6856 85.5263 13.3996 85.5263 15.4261C85.5263 17.4527 85.834 19.1761 86.4496 20.5966C87.0651 22.017 87.9363 23.1013 89.0632 23.8494C90.1901 24.5881 91.5206 24.9574 93.0547 24.9574C94.4467 24.9574 95.6352 24.7112 96.62 24.2188C97.6143 23.7169 98.3719 23.0114 98.8928 22.1023C99.4231 21.1932 99.6882 20.1184 99.6882 18.8778L100.938 19.0625H93.4382V14.4318H105.612V18.0966C105.612 20.6534 105.072 22.8504 103.992 24.6875C102.913 26.5152 101.426 27.9261 99.532 28.9205C97.638 29.9053 95.4695 30.3977 93.0263 30.3977C90.299 30.3977 87.9032 29.7964 85.8388 28.5938C83.7744 27.3816 82.1645 25.6629 81.0092 23.4375C79.8634 21.2027 79.2905 18.5511 79.2905 15.483C79.2905 13.125 79.6314 11.0227 80.3132 9.17614C81.0045 7.32008 81.9704 5.74811 83.2109 4.46023C84.4515 3.17235 85.8956 2.19223 87.5433 1.51989C89.1911 0.847537 90.9761 0.511363 92.8984 0.511363C94.5462 0.511363 96.0803 0.75284 97.5007 1.2358C98.9212 1.70928 100.181 2.38163 101.279 3.25284C102.387 4.12405 103.291 5.16098 103.992 6.36364C104.693 7.55682 105.143 8.87311 105.342 10.3125H99.0916ZM114.339 30.4119C112.947 30.4119 111.707 30.1705 110.618 29.6875C109.529 29.1951 108.667 28.4706 108.033 27.5142C107.408 26.5483 107.095 25.3456 107.095 23.9062C107.095 22.6941 107.318 21.6761 107.763 20.8523C108.208 20.0284 108.814 19.3655 109.581 18.8636C110.348 18.3617 111.219 17.983 112.195 17.7273C113.179 17.4716 114.212 17.2917 115.291 17.1875C116.56 17.0549 117.583 16.9318 118.359 16.8182C119.136 16.6951 119.699 16.5152 120.05 16.2784C120.4 16.0417 120.575 15.6913 120.575 15.2273V15.142C120.575 14.2424 120.291 13.5464 119.723 13.054C119.164 12.5616 118.369 12.3153 117.337 12.3153C116.248 12.3153 115.381 12.5568 114.737 13.0398C114.093 13.5133 113.667 14.1098 113.459 14.8295L107.862 14.375C108.146 13.0492 108.705 11.9034 109.538 10.9375C110.372 9.96212 111.446 9.21401 112.763 8.69318C114.089 8.16288 115.623 7.89773 117.365 7.89773C118.577 7.89773 119.737 8.03977 120.845 8.32386C121.963 8.60795 122.952 9.0483 123.814 9.64489C124.685 10.2415 125.372 11.0085 125.874 11.946C126.375 12.8741 126.626 13.9867 126.626 15.2841V30H120.888V26.9744H120.717C120.367 27.6562 119.898 28.2576 119.311 28.7784C118.724 29.2898 118.018 29.6922 117.195 29.9858C116.371 30.2699 115.419 30.4119 114.339 30.4119ZM116.072 26.2358C116.963 26.2358 117.749 26.0606 118.43 25.7102C119.112 25.3504 119.647 24.8674 120.036 24.2614C120.424 23.6553 120.618 22.9687 120.618 22.2017V19.8864C120.429 20.0095 120.168 20.1231 119.837 20.2273C119.515 20.322 119.15 20.4119 118.743 20.4972C118.336 20.5729 117.929 20.6439 117.521 20.7102C117.114 20.767 116.745 20.8191 116.413 20.8665C115.703 20.9706 115.083 21.1364 114.553 21.3636C114.022 21.5909 113.61 21.8987 113.317 22.2869C113.023 22.6657 112.876 23.1392 112.876 23.7074C112.876 24.5312 113.175 25.161 113.771 25.5966C114.377 26.0227 115.144 26.2358 116.072 26.2358ZM129.321 30V8.18182H135.088V12.0312H135.344C135.798 10.7528 136.556 9.74432 137.616 9.00568C138.677 8.26705 139.946 7.89773 141.423 7.89773C142.92 7.89773 144.193 8.27178 145.244 9.01989C146.295 9.75852 146.996 10.7623 147.347 12.0312H147.574C148.019 10.7812 148.824 9.7822 149.989 9.03409C151.163 8.27652 152.55 7.89773 154.151 7.89773C156.187 7.89773 157.839 8.5464 159.108 9.84375C160.386 11.1316 161.026 12.9593 161.026 15.3267V30H154.989V16.5199C154.989 15.3078 154.667 14.3987 154.023 13.7926C153.379 13.1866 152.574 12.8835 151.608 12.8835C150.509 12.8835 149.652 13.2339 149.037 13.9347C148.421 14.6259 148.114 15.5398 148.114 16.6761V30H142.247V16.392C142.247 15.322 141.939 14.4697 141.324 13.8352C140.718 13.2008 139.918 12.8835 138.923 12.8835C138.251 12.8835 137.645 13.054 137.105 13.3949C136.575 13.7263 136.153 14.1951 135.841 14.8011C135.528 15.3977 135.372 16.0985 135.372 16.9034V30H129.321ZM173.749 30.4261C171.504 30.4261 169.572 29.9716 167.953 29.0625C166.343 28.1439 165.103 26.8466 164.232 25.1705C163.36 23.4848 162.925 21.4915 162.925 19.1903C162.925 16.946 163.36 14.9763 164.232 13.2812C165.103 11.5862 166.329 10.2652 167.911 9.31818C169.501 8.37121 171.367 7.89773 173.507 7.89773C174.946 7.89773 176.286 8.12973 177.527 8.59375C178.777 9.0483 179.866 9.73485 180.794 10.6534C181.732 11.572 182.461 12.7273 182.982 14.1193C183.502 15.5019 183.763 17.1212 183.763 18.9773V20.6392H165.339V16.8892H178.067C178.067 16.018 177.877 15.2462 177.499 14.5739C177.12 13.9015 176.594 13.3759 175.922 12.9972C175.259 12.6089 174.487 12.4148 173.607 12.4148C172.688 12.4148 171.874 12.6278 171.163 13.054C170.463 13.4706 169.913 14.0341 169.516 14.7443C169.118 15.4451 168.914 16.2263 168.905 17.0881V20.6534C168.905 21.733 169.104 22.6657 169.501 23.4517C169.909 24.2377 170.482 24.8438 171.22 25.2699C171.959 25.696 172.835 25.9091 173.848 25.9091C174.52 25.9091 175.136 25.8144 175.695 25.625C176.253 25.4356 176.732 25.1515 177.129 24.7727C177.527 24.3939 177.83 23.9299 178.038 23.3807L183.635 23.75C183.351 25.0947 182.768 26.2689 181.888 27.2727C181.017 28.267 179.89 29.0436 178.507 29.6023C177.134 30.1515 175.548 30.4261 173.749 30.4261ZM189.249 30.3693C188.311 30.3693 187.506 30.0379 186.834 29.375C186.171 28.7027 185.839 27.8977 185.839 26.9602C185.839 26.0322 186.171 25.2367 186.834 24.5739C187.506 23.911 188.311 23.5795 189.249 23.5795C190.158 23.5795 190.953 23.911 191.635 24.5739C192.317 25.2367 192.658 26.0322 192.658 26.9602C192.658 27.5852 192.497 28.1581 192.175 28.679C191.862 29.1903 191.45 29.6023 190.939 29.9148C190.428 30.2178 189.864 30.3693 189.249 30.3693Z" fill="white"/>
</svg>
